<svg xmlns="http://www.w3.org/2000/svg" viewBox="-0.00000190735 5.98 69.78 14.02">
  <path d="M11.74 13.780000000000001 c-7.94 0 -8.06 -0.02 -8.16 -0.02 l-0.04 0 c-2 -0.16 -3.54 -1.86 -3.54 -3.88 c0 -2.16 1.74 -3.9 3.9 -3.9 l8.4 0 c1.68 0 3.04 1.36 3.04 3.06 l0 1.62 l-11.38 0 l-0.02 0 l-0.02 0 c-0.46 -0.02 -0.76 -0.36 -0.76 -0.78 s0.32 -0.76 0.74 -0.78 l9.88 0 l0 -0.04 c0 -0.86 -0.66 -1.52 -1.52 -1.52 l-8.36 0 c-1.28 0 -2.34 1.04 -2.34 2.34 c0 1.2 0.9 2.16 2.04 2.32 c7.98 0 8.06 0.02 8.2 0.02 c2 0.16 3.54 1.88 3.54 3.88 c0 2.16 -1.74 3.9 -3.88 3.9 l-8.42 0 c-1.68 0 -3.04 -1.36 -3.04 -3.04 l0 -1.64 l11.46 0 c0.98 0.06 0.98 1.5 0 1.56 l-9.9 0 l0 0.04 c0 0.86 0.66 1.52 1.52 1.52 l8.38 0 c1.26 0 2.34 -1 2.34 -2.34 c0 -1.2 -0.9 -2.16 -2.06 -2.32 z M24.5 12.2 l8.96 0 l0 7.8 l-8.62 0 c-3.74 -0.16 -6.7 -3.24 -6.7 -7 c0 -3.78 2.96 -6.86 6.7 -7.02 l8.62 0 l0 4.7 l-8.62 0 c-1.18 0.1 -2.08 1.12 -2.08 2.3 c0 1.22 0.9 2.18 2.08 2.34 l5.48 0 l0 1.56 l-5.48 0 c-2.02 -0.16 -3.62 -1.82 -3.62 -3.9 c0 -2 1.54 -3.72 3.54 -3.88 l7.12 0 l0 -1.56 l-7.04 0 c-2.86 0.16 -5.14 2.54 -5.14 5.46 c0 2.9 2.28 5.28 5.14 5.44 l7.04 0 l0 -4.68 l-7.38 0 l0 -1.56 z M43.660000000000004 15.32 l7.94 0 l0 4.68 l-15.34 0 l0 -3.9 l8.66 -5.44 l-8.56 0 l0 -4.68 l11.34 0 c2.78 0 5 3.02 3.26 6.04 c-0.22 0.32 -0.84 0.82 -1.46 1.22 c-0.34 0.24 -0.74 0.48 -1.16 0.72 l-2.74 0 c0.44 -0.28 0.88 -0.56 1.32 -0.82 c0.74 -0.46 1.62 -1.02 2.26 -1.48 c0.32 -0.22 0.62 -0.68 0.72 -1 c0.48 -1.42 -0.4 -3.12 -1.94 -3.12 l-10.04 0 l0 1.56 l9.78 0 c0.84 0.06 1.02 1.2 0.22 1.52 l-10.1 6.52 l0 1.3 l12.22 0 l0 -1.56 l-8.88 0 z M63.480000000000004 13.780000000000001 l-5.54 0 c-2 -0.16 -3.54 -1.88 -3.54 -3.9 c0 -2.14 1.74 -3.9 3.9 -3.9 l8.24 0 c1.76 0 3.24 1.48 3.24 3.24 l0 6.84 c0 2.18 -1.78 3.94 -3.96 3.94 l-8.18 0 c-1.82 0 -3.24 -1.42 -3.24 -3.24 l0 -1.44 l10.34 0 c0.18 0 0.28 -0.1 0.28 -0.28 l0 -4.38 l-6.72 0 c-0.42 -0.02 -0.74 -0.36 -0.74 -0.78 s0.32 -0.76 0.74 -0.78 l7.92 0 c0.22 0 0.36 0.14 0.36 0.36 l0 6.34 c0 0.62 -0.46 1.08 -1.08 1.08 l-9.54 0 c0 0.86 0.7 1.56 1.56 1.56 l8.44 0 c1.22 0 2.24 -1.02 2.24 -2.24 l0 -7.1 l0.02 0 c0 -0.86 -0.7 -1.56 -1.56 -1.56 l-8.36 0 c-1.28 0 -2.34 1.04 -2.34 2.34 c0 1.22 0.9 2.18 2.06 2.34 l5.46 0 l0 1.56 z" fill="#000000"/>
</svg>